<svg width="109" height="20" viewBox="0 0 109 20" fill="none" xmlns="http://www.w3.org/2000/svg">
<path d="M17.378 1.5C13.5837 1.5 5.76888 2.18087 5.0089 3.58488C4.62995 4.28497 4.45038 5.05282 4.9346 5.60114C7.63051 8.65391 12.4681 7.88646 15.2935 9.87896C15.9632 10.3512 16.3431 11.0817 16.3987 11.7356C16.4544 12.3895 16.0766 13.0598 15.2685 13.405C13.2332 13.7503 10.6276 14.0079 7.80773 14.3992C6.3293 14.5329 4.75449 14.5348 1.50015 14.1436" stroke="black" stroke-width="3" stroke-linecap="round"/>
<path d="M24.4892 2.46559C24.4892 3.59562 24.0708 8.05376 23.5364 12.1934C23.42 13.0956 23.3628 13.8544 23.5113 14.5724C23.6598 15.2904 24.0365 15.947 25.0495 16.2853C26.0624 16.6236 27.7002 16.6236 28.5696 15.8008C29.4389 14.978 29.4903 13.3325 29.1448 12.3594C28.7993 11.3863 28.0555 11.1355 25.4724 10.6774" stroke="black" stroke-width="3" stroke-linecap="round"/>
<path d="M43.9653 15.8664C42.933 15.7734 40.2997 15.3086 39.1038 14.5262C35.8821 12.4186 36.014 7.32685 35.996 5.80749C35.9872 5.06231 36.4652 4.40339 37.615 4.01895C38.7647 3.63451 40.6959 3.55315 41.9087 3.83569C43.1215 4.11824 43.5573 4.76714 43.9005 5.45542C44.2436 6.1437 44.4809 6.85169 44.2593 7.39219C44.0378 7.9327 43.3501 8.28427 42.2448 8.46539C41.1395 8.6465 39.6373 8.6465 38.0896 8.6465" stroke="black" stroke-width="3" stroke-linecap="round"/>
<path d="M50.3457 4.29402C50.3457 5.56624 50.7622 9.56722 51.4172 13.9651C51.6927 15.8144 51.9171 17.4238 51.9798 18.1629C52.0578 19.0828 51.6563 13.568 51.929 9.20244C52.2674 7.61651 53.0122 7.30852 53.762 7.07528C54.5118 6.84204 55.244 6.69289 57.0637 6.51281" stroke="black" stroke-width="3" stroke-linecap="round"/>
<path d="M63.4941 6.68011C63.4941 8.36316 63.804 13.1189 64.2219 16.1582C64.3264 16.9188 64.2748 17.6795 64.3125 16.9113C64.464 13.83 64.7855 10.6134 65.5869 9.28949C65.9581 8.67623 66.8551 8.66288 67.5236 8.85408C70.3146 9.65241 70.6603 13.8568 71.2478 16.1658C71.8902 18.6905 70.845 10.731 71.1801 8.64258C71.4394 7.02663 73.6867 6.64557 75.3071 6.2886C76.1101 6.11171 76.9285 6.2677 77.4661 6.70274C78.2497 7.93003 78.5894 9.50754 78.751 11.3278C78.8264 12.3868 78.8883 13.7204 79.1782 17.0609" stroke="black" stroke-width="3" stroke-linecap="round"/>
<path d="M85.497 7.12621C85.497 8.96017 85.9058 13.231 86.8984 14.641C87.3613 15.2986 88.229 15.4167 88.9556 15.3833C89.6822 15.3499 90.3659 15.0535 90.8494 14.4984C91.5954 13.1385 91.9675 11.4608 92.2358 9.72692C92.4025 8.84143 92.6311 7.94458 92.5173 5.50908" stroke="black" stroke-width="3" stroke-linecap="round"/>
<path d="M97.5096 5.50908C97.6084 5.50908 99.3784 5.50908 101.826 5.95169C104.789 6.48735 100.969 12.0057 99.7431 17.194C99.5114 18.1748 100.534 18.4479 101.311 18.4101C102.088 18.3722 102.903 18.04 103.756 17.7609C104.608 17.4817 105.473 17.2658 107.274 17.0403" stroke="black" stroke-width="3" stroke-linecap="round"/>
</svg>
